<?xml version="1.0" encoding="iso-8859-1"?>
<!-- Generator: Adobe Illustrator 19.0.0, SVG Export Plug-In . SVG Version: 6.00 Build 0)  -->
<svg version="1.1" id="Layer_1" xmlns="http://www.w3.org/2000/svg" xmlns:xlink="http://www.w3.org/1999/xlink" x="0px" y="0px"
	 viewBox="0 0 511.991 511.991" style="enable-background:new 0 0 511.991 511.991;" xml:space="preserve">
<g>
	<g>
		<path d="M358.405,0H153.611c-14.139,0-25.598,11.459-25.598,25.598v460.795c0,14.139,11.459,25.598,25.598,25.598h204.795
			c14.139,0,25.598-11.459,25.598-25.598V25.598C384.012,11.459,372.544,0,358.405,0z M153.611,25.598h204.795v25.598H153.611
			V25.598z M153.611,76.803h204.795V384H153.611V76.803z M153.611,486.393V409.59h204.795v76.803H153.611z"/>
	</g>
</g>
<g>
	<g>
		<path d="M281.602,435.197h-51.197c-7.074,0-12.799,5.725-12.799,12.799s5.725,12.799,12.799,12.799h51.197
			c7.074,0,12.799-5.725,12.799-12.799S288.676,435.197,281.602,435.197z"/>
	</g>
</g>
<g>
	<g>
		<path d="M425.115,175.476c-5-5-13.098-5-18.098,0c-5,5-5,13.098,0,18.098c34.925,34.95,34.925,91.778,0,126.72
			c-5,5-5,13.098,0,18.098c2.5,2.5,5.777,3.746,9.053,3.746s6.553-1.246,9.053-3.746
			C470.031,293.476,470.031,220.401,425.115,175.476z"/>
	</g>
</g>
<g>
	<g>
		<path d="M470.799,157.378c-5-5-13.098-5-18.098,0c-5,5-5,13.098,0,18.098c44.917,44.925,44.917,118,0,162.925
			c-5,5-5,13.098,0,18.098c2.5,2.5,5.777,3.746,9.053,3.746s6.553-1.246,9.053-3.746
			C525.699,301.608,525.699,212.278,470.799,157.378z"/>
	</g>
</g>
<g>
	<g>
		<path d="M104.982,319.364c-34.925-34.95-34.925-91.778,0-126.72c4.992-5.009,4.992-13.106-0.009-18.107c-5-5-13.098-5-18.098,0
			c-44.917,44.925-44.917,118,0,162.925c2.5,2.5,5.777,3.746,9.053,3.746c3.277,0,6.553-1.246,9.053-3.746
			C109.983,332.462,109.983,324.365,104.982,319.364z"/>
	</g>
</g>
<g>
	<g>
		<path d="M59.298,337.462c-44.925-44.925-44.925-118-0.009-162.925c5-5,5-13.098,0-18.098s-13.098-5-18.098,0
			c-54.9,54.9-54.9,144.221,0,199.121c2.5,2.5,5.777,3.746,9.053,3.746c3.277,0,6.553-1.246,9.053-3.746
			C64.298,350.56,64.298,342.462,59.298,337.462z"/>
	</g>
</g>
<g>
</g>
<g>
</g>
<g>
</g>
<g>
</g>
<g>
</g>
<g>
</g>
<g>
</g>
<g>
</g>
<g>
</g>
<g>
</g>
<g>
</g>
<g>
</g>
<g>
</g>
<g>
</g>
<g>
</g>
</svg>
